<?xml version="1.0" encoding="utf-8"?>
<!-- Generator: Adobe Illustrator 18.0.0, SVG Export Plug-In . SVG Version: 6.00 Build 0)  -->
<!DOCTYPE svg PUBLIC "-//W3C//DTD SVG 1.1//EN" "http://www.w3.org/Graphics/SVG/1.1/DTD/svg11.dtd">
<svg version="1.1" id="Layer_1" xmlns="http://www.w3.org/2000/svg" xmlns:xlink="http://www.w3.org/1999/xlink" x="0px" y="0px"
	 viewBox="0 0 220 220" enable-background="new 0 0 220 220" xml:space="preserve">
<g>
	<g>
		<path fill="#010101" d="M94.5,30.7c5.5,4.4,16.8,13.7,16.8,31.4c0,17.2-9.9,25.4-19.9,33c-3.1,3-6.7,6.3-6.7,11.4s3.6,7.9,6.1,10
			l8.5,6.5c10.4,8.6,19.9,16.5,19.9,32.6c0,21.9-21.6,44-62.4,44c-34.4,0-51-16-51-33.3c0-8.4,4.3-20.2,18.3-28.4
			c14.7-8.8,34.7-10,45.3-10.7c-3.3-4.2-7.1-8.6-7.1-15.8c0-4,1.2-6.3,2.4-9.1c-2.6,0.2-5.2,0.5-7.6,0.5
			c-25.1,0-39.4-18.4-39.4-36.5c0-10.7,5-22.6,15.2-31.2c13.5-10.9,29.7-12.8,42.5-12.8h48.8l-15.2,8.4H94.5z M77.6,134.1
			c-1.9-0.2-3.1-0.2-5.5-0.2c-2.1,0-14.9,0.5-24.9,3.7c-5.2,1.8-20.4,7.4-20.4,24s16.4,28.4,41.7,28.4c22.8,0,34.8-10.7,34.8-25.1
			C103.4,152.9,95.6,146.6,77.6,134.1 M84.5,89.8c5.5-5.4,5.9-12.8,5.9-17C90.4,56,80.2,30,60.5,30c-6.1,0-12.8,3-16.6,7.7
			c-4,4.9-5.2,11.2-5.2,17.2c0,15.6,9.2,41.4,29.7,41.4C74.3,96.4,80.7,93.5,84.5,89.8"/>
		<polygon fill="#010101" points="213,58.5 176.8,58.5 176.8,22.3 168.6,22.3 168.6,58.5 131.8,58.5 131.8,66.7 168.6,66.7 
			168.6,104.1 176.8,104.1 176.8,66.7 213,66.7 		"/>
	</g>
</g>
</svg>
