<svg xmlns="http://www.w3.org/2000/svg" version="1.1" id="instagram" x="0px" y="0px" viewBox="0 0 220 220"><path fill-rule="evenodd" clip-rule="evenodd" d="M186.832 94.607h-17.411c1.269 4.9 2 10.1 2 15.4 c0 33.992-27.549 61.54-61.536 61.54c-33.984 0-61.536-27.548-61.536-61.54c0-5.32 0.753-10.465 2.021-15.39H32.976v84.623 c0 4.2 3.4 7.7 7.7 7.686h138.456c4.255 0 7.7-3.444 7.7-7.686V94.607z M186.832 40.764c0-4.246-3.445-7.691-7.7-7.691 h-23.072c-4.249 0-7.691 3.445-7.691 7.691v23.081c0 4.2 3.4 7.7 7.7 7.691h23.072c4.255 0 7.7-3.445 7.7-7.691V40.764z M109.903 71.536c-21.243 0-38.462 17.217-38.462 38.46c0 21.2 17.2 38.5 38.5 38.466s38.465-17.226 38.465-38.466 C148.368 88.8 131.1 71.5 109.9 71.5 M186.832 210H32.976c-12.741 0-23.072-10.335-23.072-23.085V33.072 C9.904 20.3 20.2 10 33 10h153.856c12.743 0 23.1 10.3 23.1 23.072v153.843C209.904 199.7 199.6 210 186.8 210"/></svg>