<svg xmlns="http://www.w3.org/2000/svg" version="1.1" id="twitter" x="0px" y="0px" viewBox="0 0 220 220"><path d="M210 47.972c-7.358 3.264-15.267 5.469-23.566 6.461c8.471-5.078 14.977-13.119 18.041-22.701 c-7.929 4.703-16.71 8.117-26.057 9.957c-7.484-7.975-18.148-12.957-29.95-12.957c-22.66 0-41.033 18.371-41.033 41 c0 3.2 0.4 6.3 1.1 9.351c-34.102-1.711-64.337-18.047-84.574-42.872c-3.532 6.06-5.556 13.108-5.556 20.6 c0 14.2 7.2 26.8 18.3 34.153c-6.726-0.213-13.053-2.059-18.585-5.132c-0.004 0.171-0.004 0.343-0.004 0.5 c0 19.9 14.1 36.5 32.9 40.234c-3.443 0.938-7.068 1.439-10.81 1.439c-2.644 0-5.214-0.258-7.72-0.736 c5.222 16.3 20.4 28.2 38.3 28.495c-14.043 11.006-31.735 17.565-50.96 17.565c-3.312 0-6.578-0.194-9.788-0.574 c18.159 11.6 39.7 18.4 62.9 18.437c75.473 0 116.746-62.524 116.746-116.747c0-1.779-0.04-3.548-0.119-5.309 C197.543 63.4 204.5 56.2 210 47.972z"/></svg>