<svg xmlns="http://www.w3.org/2000/svg" version="1.1" id="youtube" x="0px" y="0px" viewBox="-60 -60 220 220"><path d="M107.644 96.293H96.667l0.051-6.376c0-2.833 2.327-5.151 5.171-5.151h0.7c2.849 0 5.2 2.3 5.2 5.2 L107.644 96.293z M66.473 82.631c-2.784 0-5.062 1.871-5.062 4.162V117.8c0 2.3 2.3 4.2 5.1 4.2 c2.796 0 5.076-1.867 5.076-4.153V86.793C71.549 84.5 69.3 82.6 66.5 82.631z M133.333 65.287v58.987 c0 14.149-12.271 25.727-27.267 25.727H-6.064c-15.002 0-27.269-11.578-27.269-25.727V65.287c0-14.149 12.267-25.729 27.269-25.729 h112.131C121.062 39.6 133.3 51.1 133.3 65.287z M1.416 130.678L1.407 68.542l13.9 0.004V59.34l-37.053-0.056v9.051 l11.567 0.033v62.309H1.416z M43.082 77.798H31.493v33.18c0 4.8 0.3 7.2-0.018 8.047c-0.942 2.573-5.178 5.304-6.829 0.3 c-0.28-0.88-0.033-3.536-0.038-8.096l-0.047-33.409H13.038l0.036 32.882c0.009 5.04-0.113 8.8 0 10.5 c0.282 3 0.2 6.5 3 8.54c5.213 3.8 15.207-0.56 17.707-5.929l-0.022 6.851l9.307 0.011V77.798H43.082z M80.156 115.8 l-0.024-27.616c-0.009-10.524-7.882-16.829-18.571-8.313l0.047-20.531l-11.578 0.018l-0.056 70.867l9.518-0.14l0.867-4.413 C72.527 136.8 80.2 129.2 80.2 115.793z M116.424 112.133l-8.691 0.047c-0.004 0.344-0.016 0.742-0.02 1.176v4.849 c0 2.593-2.144 4.707-4.749 4.707h-1.702c-2.609 0-4.751-2.113-4.751-4.707v-0.538v-5.333v-6.882h19.898v-7.489 c0-5.473-0.14-10.944-0.593-14.073c-1.422-9.898-15.316-11.469-22.333-6.402c-2.204 1.582-3.887 3.7-4.864 6.5 c-0.989 2.847-1.478 6.736-1.478 11.676v16.464C87.142 139.5 120.4 135.7 116.4 112.133z M71.851 22.7 c0.598 1.5 1.5 2.6 2.8 3.52c1.244 0.9 2.8 1.3 4.7 1.316c1.671 0 3.151-0.451 4.44-1.382 c1.284-0.927 2.367-2.311 3.249-4.158l-0.218 4.547h12.918v-54.936H89.6V14.4c0 2.316-1.907 4.211-4.238 4.2 c-2.318 0-4.231-1.896-4.231-4.211v-42.756H70.518V8.698c0 4.7 0.1 7.9 0.2 9.462C70.891 19.7 71.3 21.3 71.9 22.7 z M32.704-8.289c0-5.273 0.44-9.391 1.313-12.36c0.88-2.958 2.46-5.336 4.749-7.129c2.282-1.802 5.204-2.704 8.758-2.704 c2.989 0 5.5 0.6 7.7 1.736c2.149 1.2 3.8 2.7 5 4.507c1.171 1.9 2 3.8 2.4 5.7 c0.433 2 0.6 5 0.6 8.996V4.369c0 5.096-0.204 8.844-0.6 11.224c-0.393 2.387-1.238 4.6-2.544 6.7 c-1.291 2.053-2.956 3.589-4.973 4.569c-2.04 0.989-4.373 1.473-7.009 1.473c-2.944 0-5.424-0.407-7.469-1.256 c-2.051-0.844-3.636-2.118-4.764-3.809c-1.14-1.693-1.942-3.756-2.427-6.16c-0.487-2.402-0.718-6.016-0.718-10.831V-8.289H32.704z M42.822 13.533c0 3.1 2.3 5.7 5.1 5.651c2.822 0 5.127-2.54 5.127-5.651v-29.244c0-3.107-2.304-5.647-5.127-5.647 c-2.82 0-5.136 2.54-5.136 5.647V13.533z M7.071 28.3h12.187l0.013-42.133l14.4-36.093H20.342l-7.656 26.809L4.922-50H-8.269 l15.32 36.187L7.071 28.3z"/></svg>