<svg xmlns="http://www.w3.org/2000/svg" viewBox="0 0 220 220"><g fill="#010101"><path d="M94.5 30.7c5.5 4.4 16.8 13.7 16.8 31.4 0 17.2-9.9 25.4-19.9 33-3.1 3-6.7 6.3-6.7 11.4s3.6 7.9 6.1 10l8.5 6.5c10.4 8.6 19.9 16.5 19.9 32.6 0 21.9-21.6 44-62.4 44-34.4 0-51-16-51-33.3 0-8.4 4.3-20.2 18.3-28.4 14.7-8.8 34.7-10 45.3-10.7-3.3-4.2-7.1-8.6-7.1-15.8 0-4 1.2-6.3 2.4-9.1-2.6.2-5.2.5-7.6.5-25.1 0-39.4-18.4-39.4-36.5 0-10.7 5-22.6 15.2-31.2 13.5-10.9 29.7-12.8 42.5-12.8h48.8L109 30.7H94.5zM77.6 134.1c-1.9-.2-3.1-.2-5.5-.2-2.1 0-14.9.5-24.9 3.7-5.2 1.8-20.4 7.4-20.4 24S43.2 190 68.5 190c22.8 0 34.8-10.7 34.8-25.1.1-12-7.7-18.3-25.7-30.8m6.9-44.3c5.5-5.4 5.9-12.8 5.9-17C90.4 56 80.2 30 60.5 30c-6.1 0-12.8 3-16.6 7.7-4 4.9-5.2 11.2-5.2 17.2 0 15.6 9.2 41.4 29.7 41.4 5.9.1 12.3-2.8 16.1-6.5M213 58.5h-36.2V22.3h-8.2v36.2h-36.8v8.2h36.8v37.4h8.2V66.7H213"/></g></svg>