<svg xmlns="http://www.w3.org/2000/svg" viewBox="0 0 220 220"><path fill-rule="evenodd" clip-rule="evenodd" d="M186.832 94.607h-17.41c1.268 4.9 2 10.1 2 15.4 0 33.992-27.55 61.54-61.537 61.54-33.984 0-61.536-27.548-61.536-61.54 0-5.32.752-10.465 2.02-15.39H32.976v84.623c0 4.2 3.4 7.7 7.7 7.686h138.456c4.255 0 7.7-3.444 7.7-7.686V94.607zm0-53.843c0-4.246-3.445-7.69-7.7-7.69H156.06c-4.25 0-7.69 3.444-7.69 7.69v23.08c0 4.2 3.4 7.7 7.7 7.692h23.07c4.256 0 7.7-3.445 7.7-7.69V40.763zm-76.93 30.772c-21.242 0-38.46 17.217-38.46 38.46 0 21.2 17.2 38.5 38.5 38.466s38.464-17.226 38.464-38.466C148.368 88.8 131.1 71.5 109.9 71.5M186.832 210H32.976c-12.74 0-23.072-10.335-23.072-23.085V33.072C9.904 20.3 20.2 10 33 10h153.856c12.743 0 23.1 10.3 23.1 23.072v153.843C209.904 199.7 199.6 210 186.8 210"/></svg>