<svg xmlns="http://www.w3.org/2000/svg" viewBox="0 0 220 220"><path d="M210 47.972c-7.358 3.264-15.267 5.47-23.566 6.46 8.47-5.077 14.977-13.118 18.04-22.7-7.928 4.703-16.71 8.117-26.056 9.957-7.484-7.976-18.148-12.958-29.95-12.958-22.66 0-41.033 18.37-41.033 41 0 3.2.4 6.3 1.1 9.35-34.102-1.71-64.337-18.046-84.574-42.87-3.53 6.06-5.555 13.107-5.555 20.6 0 14.2 7.2 26.8 18.3 34.152-6.726-.213-13.053-2.06-18.585-5.132-.004.17-.004.343-.004.5 0 19.9 14.1 36.5 32.9 40.234-3.443.938-7.068 1.44-10.81 1.44-2.644 0-5.214-.26-7.72-.737 5.222 16.3 20.4 28.2 38.3 28.494-14.043 11.006-31.735 17.565-50.96 17.565-3.312 0-6.578-.195-9.788-.575 18.16 11.6 39.7 18.4 62.9 18.437 75.473 0 116.746-62.524 116.746-116.747 0-1.78-.04-3.548-.12-5.31C197.545 63.4 204.5 56.2 210 47.973z"/></svg>