<svg xmlns="http://www.w3.org/2000/svg" viewBox="-60 -60 220 220"><path d="M107.644 96.293H96.667l.05-6.376c0-2.833 2.328-5.15 5.172-5.15h.7c2.848 0 5.2 2.3 5.2 5.2l-.146 6.326zM66.474 82.63c-2.785 0-5.063 1.872-5.063 4.163V117.8c0 2.3 2.3 4.2 5.1 4.2 2.797 0 5.077-1.867 5.077-4.153V86.793C71.55 84.5 69.3 82.6 66.5 82.63zm66.86-17.343v58.987c0 14.15-12.272 25.727-27.268 25.727H-6.064c-15.002 0-27.27-11.577-27.27-25.726V65.287c0-14.15 12.268-25.73 27.27-25.73h112.13C121.063 39.6 133.3 51.1 133.3 65.288zM1.415 130.677l-.01-62.135 13.9.004V59.34l-37.052-.056v9.05l11.567.034v62.31H1.417zm41.666-52.88h-11.59v33.18c0 4.8.3 7.2-.017 8.048-.942 2.573-5.178 5.304-6.83.3-.28-.88-.032-3.536-.037-8.096l-.047-33.41H13.04l.036 32.882c.01 5.04-.113 8.8 0 10.5.282 3 .2 6.5 3 8.54 5.213 3.8 15.207-.56 17.707-5.93l-.02 6.852 9.306.01V77.8h.016zM80.156 115.8l-.024-27.616c-.01-10.524-7.882-16.83-18.57-8.313l.046-20.53-11.578.018-.056 70.867 9.518-.14.867-4.413c12.167 11.128 19.84 3.528 19.84-9.88zm36.268-3.667l-8.69.047c-.005.344-.017.742-.02 1.176v4.85c0 2.592-2.145 4.706-4.75 4.706h-1.702c-2.61 0-4.75-2.113-4.75-4.707v-12.753h19.897v-7.49c0-5.472-.14-10.943-.594-14.072-1.422-9.898-15.316-11.47-22.333-6.402-2.204 1.582-3.887 3.7-4.864 6.5-.99 2.847-1.48 6.736-1.48 11.676v16.464c.002 27.372 33.26 23.572 29.26.005zM71.85 22.7c.6 1.5 1.5 2.6 2.8 3.52 1.245.9 2.8 1.3 4.7 1.316 1.672 0 3.152-.45 4.44-1.382 1.285-.927 2.368-2.31 3.25-4.158l-.218 4.547H99.74v-54.936H89.6V14.4c0 2.316-1.907 4.21-4.238 4.2-2.318 0-4.23-1.896-4.23-4.21v-42.757H70.517V8.698c0 4.7.1 7.9.2 9.462.173 1.54.582 3.14 1.182 4.54zM32.705-8.29c0-5.272.44-9.39 1.313-12.36.88-2.957 2.46-5.335 4.75-7.128 2.28-1.802 5.203-2.704 8.757-2.704 2.99 0 5.5.6 7.7 1.736 2.15 1.2 3.8 2.7 5 4.507 1.17 1.9 2 3.8 2.4 5.7.433 2 .6 5 .6 8.997V4.37c0 5.095-.204 8.843-.6 11.223-.393 2.387-1.238 4.6-2.544 6.7-1.29 2.053-2.956 3.59-4.973 4.57-2.04.988-4.373 1.472-7.01 1.472-2.943 0-5.423-.407-7.468-1.256-2.052-.845-3.637-2.12-4.765-3.81-1.14-1.693-1.942-3.756-2.427-6.16-.487-2.402-.718-6.016-.718-10.83V-8.29h-.016zm10.118 21.823c0 3.1 2.3 5.7 5.1 5.65 2.822 0 5.127-2.54 5.127-5.65V-15.71c0-3.108-2.305-5.648-5.128-5.648-2.82 0-5.136 2.54-5.136 5.647v29.243zM7.072 28.3h12.186l.013-42.133 14.4-36.093H20.343l-7.656 26.81L4.922-50h-13.19L7.05-13.813 7.07 28.3z"/></svg>